<svg id="icons" xmlns="http://www.w3.org/2000/svg" xmlns:xlink="http://www.w3.org/1999/xlink" viewBox="0 0 130 130"><defs><style>.cls-1{fill:#fff;}.cls-2{opacity:0.9;fill:url(#linear-gradient);}.cls-3,.cls-4{fill:none;stroke-linecap:round;stroke-miterlimit:10;stroke-width:2px;}.cls-3{stroke:#7a589e;}.cls-4{stroke:#fff;}</style><linearGradient id="linear-gradient" x1="64.55" y1="5" x2="64.55" y2="128.45" gradientUnits="userSpaceOnUse"><stop offset="0" stop-color="#7ec7e6"/><stop offset="1" stop-color="#844de1"/></linearGradient></defs><title>heroku-is</title><circle class="cls-1" cx="64.55" cy="66.75" r="61.75"/><path class="cls-2" d="M64.55,5a61.74,61.74,0,0,0-2.26,123.43c-.22-.24.14-11.43.14-11.43s-7.08-1.1-7-6.38l.25-8.93s-1.25.22-3.87-10.12c-4.32-7-19.33-18.21-13.34-37.55,5.41-17.48,22.49-19.59,22.49-19.59l3.36-2.19L67,34.49a49.52,49.52,0,0,1,8.65,2.72c19.84,9.35,15.39,32.66,14.15,36.2C87.57,79.82,77,90.75,76.9,90.9c-2.79,9.51-4,10.5-4,10.5s.33,11.08-1,12.29c-1.18,1.08-6,3.28-6,3.28l.33,11.48A61.74,61.74,0,0,0,64.55,5Z"/><path class="cls-3" d="M53.21,95.35c.56,4.29,2.14,6.05,2.14,6.05H72.92s1.58-1.76,2.15-6.05S81.52,85,81.52,85a29.26,29.26,0,0,0,9.72-22c0-14.46-10.13-26.42-23.29-28.37C66.71,34.44,65.44,32,64.16,32s-2.67,2.5-4,2.7C47.12,36.67,37.07,48.59,37.07,63a29.14,29.14,0,0,0,9.65,21.93S52.65,91.05,53.21,95.35Z"/><path class="cls-3" d="M72.76,101.4v10.78c0,2.42-7.12,4.79-8.8,4.79s-8.61-2.43-8.61-4.79V101.4"/><line class="cls-3" x1="54.39" y1="105.75" x2="74.11" y2="105.75"/><line class="cls-3" x1="54.39" y1="110.12" x2="74.11" y2="110.12"/><path class="cls-3" d="M61.78,90.9V48.56a2.29,2.29,0,0,1,2.33-2.4c1.56,0,2.15,1.71,2.15,2.29V90.9"/><line class="cls-3" x1="62.16" y1="116.97" x2="62.16" y2="128.02"/><line class="cls-3" x1="65.87" y1="116.97" x2="65.87" y2="128.52"/><path class="cls-3" d="M61.46,62.51s-2.93,3.07-5.1,2.37a3.84,3.84,0,1,1,2.36-7.28C60.88,58.3,61.46,62.51,61.46,62.51Z"/><path class="cls-3" d="M67,57.47s.58,4.21,2.75,4.91a3.84,3.84,0,1,0,2.35-7.28C70,54.4,67,57.47,67,57.47Z"/><line class="cls-3" x1="61.46" y1="62.51" x2="67.03" y2="57.47"/><path class="cls-3" d="M59.09,101.4V93.9a3,3,0,0,1,3-3h4.48a3,3,0,0,1,3,3v7.5"/><path class="cls-3" d="M48.94,44.72s-7.09,6.79-7.09,15.77"/><path class="cls-3" d="M78.81,80.84s7.24-5.12,7.81-12"/><circle class="cls-3" cx="64.55" cy="66.75" r="61.75"/><line class="cls-4" x1="64.02" y1="25.21" x2="64.02" y2="19.13"/><line class="cls-4" x1="70.81" y1="27.87" x2="74.11" y2="15.72"/><line class="cls-4" x1="77.12" y1="30.61" x2="81.02" y2="22.17"/><line class="cls-4" x1="83.87" y1="33.79" x2="86.62" y2="30.61"/><line class="cls-4" x1="89.91" y1="27.37" x2="93.76" y2="23.11"/><line class="cls-4" x1="88.36" y1="37.96" x2="94.99" y2="32.2"/><line class="cls-4" x1="92.86" y1="42.75" x2="105.75" y2="35.08"/><line class="cls-4" x1="95.5" y1="48.35" x2="103.12" y2="45.78"/><line class="cls-4" x1="96.5" y1="54.36" x2="102.41" y2="53.69"/><line class="cls-4" x1="107.29" y1="53.24" x2="112.9" y2="52.6"/><line class="cls-4" x1="97.26" y1="60.49" x2="108.14" y2="59.99"/><line class="cls-4" x1="97.76" y1="67.14" x2="115.19" y2="68.36"/><line class="cls-4" x1="96.5" y1="73.69" x2="102.41" y2="74.83"/><line class="cls-4" x1="106.48" y1="75.67" x2="112.4" y2="77.01"/><line class="cls-4" x1="94.46" y1="79.36" x2="102.41" y2="82.28"/><line class="cls-4" x1="90.81" y1="85.63" x2="102.91" y2="91.57"/><line class="cls-4" x1="85.99" y1="90.84" x2="91.81" y2="95.05"/><line class="cls-4" x1="82.24" y1="96.15" x2="84.09" y2="98.2"/><line class="cls-4" x1="57.45" y1="27.87" x2="54.16" y2="15.72"/><line class="cls-4" x1="51.15" y1="30.61" x2="47.25" y2="22.17"/><line class="cls-4" x1="44.4" y1="33.79" x2="41.64" y2="30.61"/><line class="cls-4" x1="38.36" y1="27.37" x2="34.51" y2="23.11"/><line class="cls-4" x1="39.91" y1="37.96" x2="33.27" y2="32.2"/><line class="cls-4" x1="35.41" y1="42.75" x2="22.51" y2="35.08"/><line class="cls-4" x1="32.77" y1="48.35" x2="25.15" y2="45.78"/><line class="cls-4" x1="31.77" y1="54.36" x2="25.86" y2="53.69"/><line class="cls-4" x1="20.98" y1="53.24" x2="15.37" y2="52.6"/><line class="cls-4" x1="31.01" y1="60.49" x2="20.13" y2="59.99"/><line class="cls-4" x1="30.51" y1="67.14" x2="13.08" y2="68.36"/><line class="cls-4" x1="31.77" y1="73.69" x2="25.86" y2="74.83"/><line class="cls-4" x1="21.79" y1="75.67" x2="15.87" y2="77.01"/><line class="cls-4" x1="33.81" y1="79.36" x2="25.86" y2="82.28"/><line class="cls-4" x1="37.46" y1="85.63" x2="25.36" y2="91.57"/><line class="cls-4" x1="42.28" y1="90.84" x2="36.46" y2="95.05"/><line class="cls-4" x1="46.03" y1="96.15" x2="43.68" y2="98.75"/></svg>