<svg id="icons" xmlns="http://www.w3.org/2000/svg" xmlns:xlink="http://www.w3.org/1999/xlink" viewBox="0 0 130 130"><defs><style>.cls-1{fill:#fff;}.cls-2,.cls-3,.cls-4{opacity:0.9;}.cls-2{fill:url(#linear-gradient);}.cls-3{fill:url(#linear-gradient-2);}.cls-4{fill:url(#linear-gradient-3);}.cls-5,.cls-7{fill:none;stroke:#7a589e;stroke-linecap:round;stroke-width:2px;}.cls-5{stroke-miterlimit:10;}.cls-6{fill:#7a589e;}.cls-7{stroke-linejoin:round;}</style><linearGradient id="linear-gradient" x1="42.99" y1="6.3" x2="42.99" y2="125.56" gradientUnits="userSpaceOnUse"><stop offset="0" stop-color="#7ec7e6"/><stop offset="1" stop-color="#844de1"/></linearGradient><linearGradient id="linear-gradient-2" x1="87.95" y1="4.31" x2="87.95" y2="130.08" xlink:href="#linear-gradient"/><linearGradient id="linear-gradient-3" x1="64.86" y1="5" x2="64.86" y2="128.5" xlink:href="#linear-gradient"/></defs><title>heroku-is</title><circle class="cls-1" cx="64.97" cy="66.75" r="61.75"/><polygon class="cls-2" points="60.5 56.55 41.14 42.97 54.18 62.14 25.48 66.83 54.17 71.73 41.44 90.81 60.38 77.52 58.78 65.28 60.5 56.55"/><polygon class="cls-3" points="89.01 42.4 69.51 55.85 71.28 66.64 69.83 78.53 90.02 91.7 76.09 71.32 106.39 66.75 76.11 62.1 89.01 42.4"/><path class="cls-4" d="M64.86,5a61.75,61.75,0,1,0,61.75,61.75A61.75,61.75,0,0,0,64.86,5ZM77.24,116.62C62.11,120.76,35.08,118.32,20.8,93S14,30,47.78,18.8,107,29.86,114.13,52.59,109.6,107.77,77.24,116.62Z"/><circle class="cls-5" cx="64.97" cy="66.75" r="61.75"/><circle class="cls-5" cx="64.97" cy="66.75" r="51.35"/><circle class="cls-5" cx="64.97" cy="66.75" r="51.35"/><circle class="cls-6" cx="64.86" cy="66.7" r="2.75"/><polyline class="cls-7" points="58.76 66.7 64.86 24.43 71.25 66.75"/><polyline class="cls-7" points="71.25 66.8 65.14 109.07 58.76 66.75"/><polyline class="cls-7" points="76.11 62.1 107.32 66.61 76.09 71.32"/><polyline class="cls-7" points="54.23 71.45 22.68 66.89 54.18 62.14"/><polyline class="cls-7" points="69.57 55.61 89.89 41.69 76.11 62.1"/><polyline class="cls-7" points="60.38 77.52 40.02 91.82 54.23 71.45"/><polyline class="cls-7" points="76.1 71.37 90.02 91.7 69.61 77.91"/><polyline class="cls-7" points="54.19 62.19 39.89 41.82 60.27 56.03"/><line class="cls-7" x1="64.97" y1="15.41" x2="64.97" y2="18.75"/><line class="cls-7" x1="116.31" y1="66.21" x2="112.97" y2="66.21"/><line class="cls-7" x1="112.58" y1="84.74" x2="109.39" y2="83.74"/><line class="cls-7" x1="100.9" y1="30.37" x2="98.53" y2="32.74"/><line class="cls-7" x1="111.84" y1="46.87" x2="108.84" y2="48.34"/><line class="cls-7" x1="84.84" y1="19.62" x2="83.49" y2="22.68"/><line class="cls-7" x1="101.04" y1="102.75" x2="98.68" y2="100.39"/><line class="cls-7" x1="84.56" y1="114.07" x2="82.86" y2="111.19"/><line class="cls-7" x1="64.97" y1="114.29" x2="64.97" y2="117.63"/><line class="cls-7" x1="13.66" y1="66.21" x2="17" y2="66.21"/><line class="cls-7" x1="17.39" y1="84.74" x2="20.58" y2="83.74"/><line class="cls-7" x1="29.07" y1="30.37" x2="31.44" y2="32.74"/><line class="cls-7" x1="18.13" y1="46.87" x2="21.13" y2="48.34"/><line class="cls-7" x1="45.13" y1="19.62" x2="46.48" y2="22.68"/><line class="cls-7" x1="28.93" y1="102.75" x2="31.29" y2="100.39"/><line class="cls-7" x1="45.41" y1="114.07" x2="47.11" y2="111.19"/></svg>