<svg id="icons" xmlns="http://www.w3.org/2000/svg" xmlns:xlink="http://www.w3.org/1999/xlink" viewBox="0 0 130 130"><defs><style>.cls-1{fill:#fff;}.cls-2{opacity:0.9;fill:url(#linear-gradient);}.cls-3,.cls-4,.cls-5{fill:none;stroke-linecap:round;stroke-width:2px;}.cls-3{stroke:#7a589e;}.cls-3,.cls-5{stroke-miterlimit:10;}.cls-4,.cls-5{stroke:#fff;}.cls-4{stroke-linejoin:round;}</style><linearGradient id="linear-gradient" x1="64.79" y1="17.45" x2="64.79" y2="113.17" gradientUnits="userSpaceOnUse"><stop offset="0" stop-color="#7ec7e6"/><stop offset="1" stop-color="#844de1"/></linearGradient></defs><title>heroku-is</title><circle class="cls-1" cx="64.79" cy="66.75" r="61.75"/><path class="cls-1" d="M111.08,107.78a42.73,42.73,0,0,0,3.5-4.4c.4-.69.8-1.38,1.23-2a18.93,18.93,0,0,0,2.76-4.6v-75a3,3,0,0,0-3-3H14a3,3,0,0,0-3,3V96.84a1.48,1.48,0,0,1,.71.83,35.13,35.13,0,0,0,5.78,9.39c2,2.46,4.57,4,6.93,6.11h81.21C107.35,111.26,109.34,109.65,111.08,107.78Z"/><path class="cls-2" d="M118.57,97.17v-73H11V97.06c.11.14,8.1,12.26,13.05,16.11h81.59A122.79,122.79,0,0,0,118.57,97.17Z"/><path class="cls-3" d="M11,97.12V21.73a3,3,0,0,1,3-3H115.57a3,3,0,0,1,3,3V97.12"/><line class="cls-3" x1="105.51" y1="113.17" x2="24.06" y2="113.17"/><line class="cls-3" x1="11.01" y1="24.74" x2="118.57" y2="24.74"/><line class="cls-3" x1="64.79" y1="24.74" x2="64.79" y2="113.17"/><polyline class="cls-4" points="20.84 33.77 24.7 37.63 21.07 41.25"/><line class="cls-5" x1="28.87" y1="41.25" x2="38.47" y2="41.25"/><line class="cls-5" x1="72.65" y1="33.5" x2="72.65" y2="37.76"/><line class="cls-5" x1="72.65" y1="42.04" x2="72.65" y2="46.3"/><line class="cls-5" x1="72.65" y1="50.57" x2="72.65" y2="54.83"/><line class="cls-5" x1="72.65" y1="59.37" x2="72.65" y2="63.63"/><line class="cls-5" x1="72.65" y1="67.91" x2="72.65" y2="72.16"/><line class="cls-5" x1="72.65" y1="76.69" x2="72.65" y2="80.95"/><line class="cls-5" x1="79.11" y1="35.63" x2="87.09" y2="35.63"/><line class="cls-5" x1="79.11" y1="44.17" x2="110.82" y2="44.17"/><line class="cls-5" x1="83.26" y1="52.7" x2="97.16" y2="52.7"/><line class="cls-5" x1="79.11" y1="70.03" x2="93.01" y2="70.03"/><line class="cls-5" x1="79.11" y1="70.03" x2="93.01" y2="70.03"/><line class="cls-5" x1="79.11" y1="78.82" x2="102.48" y2="78.82"/><line class="cls-5" x1="72.65" y1="59.37" x2="72.65" y2="63.63"/><line class="cls-5" x1="72.65" y1="67.91" x2="72.65" y2="72.16"/><line class="cls-5" x1="72.65" y1="76.69" x2="72.65" y2="80.95"/><line class="cls-5" x1="79.11" y1="70.03" x2="93.01" y2="70.03"/><line class="cls-5" x1="79.11" y1="70.03" x2="93.01" y2="70.03"/><line class="cls-5" x1="79.11" y1="78.82" x2="102.48" y2="78.82"/><line class="cls-5" x1="83.26" y1="61.36" x2="110.51" y2="61.36"/><line class="cls-5" x1="72.65" y1="85.17" x2="72.65" y2="89.42"/><line class="cls-5" x1="72.65" y1="93.7" x2="72.65" y2="97.96"/><line class="cls-5" x1="83.26" y1="95.83" x2="102.48" y2="95.83"/><line class="cls-5" x1="72.65" y1="85.17" x2="72.65" y2="89.42"/><line class="cls-5" x1="72.65" y1="93.7" x2="72.65" y2="97.96"/><line class="cls-5" x1="83.26" y1="87.16" x2="110.51" y2="87.16"/><line class="cls-5" x1="90.94" y1="35.63" x2="106.64" y2="35.63"/><path class="cls-3" d="M26,18.73a61.77,61.77,0,0,1,77.67,0"/><path class="cls-3" d="M118.83,36.84A61.75,61.75,0,1,1,11,36.38"/></svg>