<svg id="icons" xmlns="http://www.w3.org/2000/svg" xmlns:xlink="http://www.w3.org/1999/xlink" viewBox="0 0 130 130"><defs><style>.cls-1{fill:#fff;}.cls-2{opacity:0.9;fill:url(#linear-gradient);}.cls-3,.cls-4{fill:none;stroke:#7a589e;stroke-width:2px;}.cls-3{stroke-linejoin:round;}.cls-4{stroke-linecap:round;stroke-miterlimit:10;}</style><linearGradient id="linear-gradient" x1="59.49" y1="5.41" x2="59.49" y2="128.76" gradientUnits="userSpaceOnUse"><stop offset="0" stop-color="#7ec7e6"/><stop offset="1" stop-color="#844de1"/></linearGradient></defs><title>heroku-is</title><path class="cls-1" d="M126.48,66.75A61.75,61.75,0,1,1,57.54,5.41c2.36-.27,7.21-4.07,7.21-4.07s4.72,3.8,7,4.06A61.75,61.75,0,0,1,126.48,66.75Z"/><path class="cls-2" d="M90.76,67l-26,15,0,46.55s-10.27,2.13-26-5.73V79.82l26-15V31.34l26-15ZM9.3,39.52c-17,34.79,3.46,60.59,3.46,60.59V64.82l26-15,0-33.48L57.54,5.41S24.24,8.92,9.3,39.52ZM90.76,97v25.81s16.68-7.28,25.66-23.3v-17Z"/><polyline class="cls-3" points="38.74 16.34 64.74 31.34 90.73 16.33"/><polyline class="cls-3" points="90.76 66.95 90.73 16.33 64.75 1.34 38.74 16.34 38.72 49.82"/><polyline class="cls-3" points="12.76 64.82 38.76 79.82 64.75 64.82 38.77 49.82 12.76 64.82 12.74 100.09"/><line class="cls-3" x1="64.74" y1="31.34" x2="64.73" y2="64.82"/><line class="cls-3" x1="38.75" y1="79.82" x2="38.75" y2="122.77"/><polyline class="cls-3" points="64.77 81.95 90.76 96.95 116.75 81.95 90.78 66.95 64.77 81.95 64.75 128.5"/><line class="cls-3" x1="116.75" y1="81.95" x2="116.75" y2="100.09"/><line class="cls-3" x1="90.76" y1="96.95" x2="90.76" y2="122.76"/><line class="cls-3" x1="50.97" y1="23.4" x2="50.97" y2="57.28"/><line class="cls-3" x1="44.9" y1="19.85" x2="44.9" y2="53.73"/><line class="cls-3" x1="57.93" y1="27.72" x2="57.93" y2="60.6"/><line class="cls-3" x1="76.7" y1="89.05" x2="76.7" y2="127.34"/><line class="cls-3" x1="70.62" y1="85.51" x2="70.62" y2="128.22"/><line class="cls-3" x1="83.65" y1="93.37" x2="83.65" y2="125.76"/><path class="cls-4" d="M71.79,5.4a61.83,61.83,0,1,1-14.25,0"/></svg>