<svg id="icons" xmlns="http://www.w3.org/2000/svg" xmlns:xlink="http://www.w3.org/1999/xlink" viewBox="0 0 130 130"><defs><style>.cls-1{fill:#fff;}.cls-2,.cls-3{opacity:0.9;}.cls-2{fill:url(#linear-gradient);}.cls-3{fill:url(#linear-gradient-2);}.cls-4,.cls-5{fill:none;stroke:#7a589e;stroke-linecap:round;stroke-width:2px;}.cls-4{stroke-miterlimit:10;}.cls-5{stroke-linejoin:round;}</style><linearGradient id="linear-gradient" x1="33.16" y1="5.06" x2="33.16" y2="133.83" gradientUnits="userSpaceOnUse"><stop offset="0" stop-color="#7ec7e6"/><stop offset="1" stop-color="#844de1"/></linearGradient><linearGradient id="linear-gradient-2" x1="96.8" y1="5.04" x2="96.8" y2="129.87" xlink:href="#linear-gradient"/></defs><title>heroku-is</title><circle class="cls-1" cx="65.21" cy="66.75" r="61.75"/><path class="cls-2" d="M15.11,82.24c1.64-6.45,5.88-11.42,13.5-11.87C35,70,40.32,76.3,41.14,83a8.91,8.91,0,0,1,8.12,1.57c2.25,1.75,2.91,5.44,3.91,8,2.2,2.06,5.07,3.32,6.09-1.86V69.86l-3.5-3.25-19.48-.39L62.87,5.06A61.77,61.77,0,0,0,6.18,84.91C8,82.69,11.37,80.38,15.11,82.24Z"/><path class="cls-3" d="M93.06,66.22l-20.32.36-2.88,2.61V87.44c0,6.88,7,4.13,7.2,1.78.88-7.57,3.49-10.37,6.15-11.37,2.85-1.07,6.3.26,8.73,1.73,2.93-6.62,11.51-8.78,18-5.81,5.54,2.54,8.2,9.7,6.84,15.57a13.23,13.23,0,0,1,5,2.15A65,65,0,0,0,127,66.75,61.74,61.74,0,0,0,66.65,5C67.7,10.14,93.06,66.22,93.06,66.22Z"/><circle class="cls-4" cx="65.21" cy="66.75" r="61.75"/><polygon class="cls-5" points="64.67 1.59 36.28 66.22 62.33 66.22 64.67 1.59"/><polygon class="cls-5" points="93.06 66.22 64.67 1.59 67.01 66.22 93.06 66.22"/><polyline class="cls-5" points="56.22 66.75 64.67 73.77 73.22 66.22"/><path id="_Path_" data-name="&lt;Path&gt;" class="cls-5" d="M77.94,83.4c0-.16.11-.32.17-.47A8.7,8.7,0,0,1,89.39,78a8.88,8.88,0,0,1,2.55,1.55,13,13,0,0,1,24.11,9.82,5.77,5.77,0,0,1,3,.34,5.2,5.2,0,0,1,2.55,2"/><path id="_Path_2" data-name="&lt;Path&gt;" class="cls-5" d="M113.69,76.85a13,13,0,0,1-1.57,18.34,9.13,9.13,0,0,1-12.87-1.07,6.39,6.39,0,0,1,.75-9,4.48,4.48,0,0,1,6.3.52,3.14,3.14,0,0,1-.36,4.42"/><path id="_Path_3" data-name="&lt;Path&gt;" class="cls-5" d="M83.87,77.75a8.7,8.7,0,0,0-6,10.72,6.09,6.09,0,0,0,7.51,4.22,4.27,4.27,0,0,0,3-5.26,3,3,0,0,0-3.68-2.06,2.09,2.09,0,0,0-1.45,2.57"/><path class="cls-5" d="M69.86,69.19V87.44c0,5.94,7.7,5.23,7.7-.56"/><path id="_Path_4" data-name="&lt;Path&gt;" class="cls-5" d="M52.41,92.11c0-.17,0-.34,0-.51A8.71,8.71,0,0,0,41.14,83a13,13,0,0,0-26-.73,5.66,5.66,0,0,0-2.88-.9,5.79,5.79,0,0,0-5.83,4.3"/><path id="_Path_5" data-name="&lt;Path&gt;" class="cls-5" d="M22.33,71.7a13,13,0,0,0-5.95,17.41,9.13,9.13,0,0,0,12.2,4.22,6.39,6.39,0,0,0,3-8.55,4.47,4.47,0,0,0-6-2.06A3.14,3.14,0,0,0,24.1,86.9"/><path id="_Path_6" data-name="&lt;Path&gt;" class="cls-5" d="M49.26,84.54a8.7,8.7,0,0,1,1.18,12.25,6.08,6.08,0,0,1-8.56.82,4.25,4.25,0,0,1-.59-6,3,3,0,0,1,4.2-.41,2.09,2.09,0,0,1,.29,2.94"/><path class="cls-5" d="M59.15,69.19V89.36c0,7-6.75,5.34-6.75.76"/></svg>