<svg id="icons" xmlns="http://www.w3.org/2000/svg" xmlns:xlink="http://www.w3.org/1999/xlink" viewBox="0 0 130 130"><defs><style>.cls-1{fill:#fff;}.cls-2,.cls-3{opacity:0.9;}.cls-2{fill:url(#linear-gradient);}.cls-3{fill:url(#linear-gradient-2);}.cls-4,.cls-5,.cls-6{fill:none;stroke-linecap:round;stroke-width:2px;}.cls-4,.cls-5{stroke:#7a589e;}.cls-4,.cls-6{stroke-miterlimit:10;}.cls-5{stroke-linejoin:round;}.cls-6{stroke:#fff;}</style><linearGradient id="linear-gradient" x1="74.43" y1="3.41" x2="74.43" y2="127.89" gradientUnits="userSpaceOnUse"><stop offset="0" stop-color="#7ec7e6"/><stop offset="1" stop-color="#844de1"/></linearGradient><linearGradient id="linear-gradient-2" x1="64.39" y1="4.89" x2="64.39" y2="128.39" xlink:href="#linear-gradient"/></defs><title>heroku-is</title><circle class="cls-1" cx="64.21" cy="66.22" r="61.75"/><path class="cls-2" d="M78.88,85.75l-6.44,3.54s-23.86.54-28-1.59a6.17,6.17,0,0,1-2.82-8.5c3-5.17,11.67-14.38,11.67-14.38s-18.78,13.34-19,18.39,2.09,8.24,6.91,11c4,2.35,21.51,11.67,24.37,15.46,3.78,5,3.69,13.26.2,18.17a61.67,61.67,0,0,0,48.87-25.41C108.49,91.6,78.88,85.75,78.88,85.75Z"/><path class="cls-3" d="M64.21,4.89A61.73,61.73,0,0,0,2.82,60.26c5.79-5.13,34.27-30.45,34.27-30.45l6.42,3.73,6.36-4.34L99.55,73.9s6.38-4,9.72-4,15.66,7.93,15.66,7.93a62.51,62.51,0,0,0,1-11.19A61.75,61.75,0,0,0,64.21,4.89Z"/><circle class="cls-4" cx="64.42" cy="66.75" r="61.75"/><polyline class="cls-5" points="99.05 73.17 49.87 29.2 43.51 33.54 37.09 29.81 2.98 60.26"/><path class="cls-4" d="M62.46,95.39,104,71a9.87,9.87,0,0,1,10,.08l11,6.31"/><path id="_Path_" data-name="&lt;Path&gt;" class="cls-6" d="M90.49,21.37H70.72A4.86,4.86,0,0,0,65.94,26h0a4.67,4.67,0,0,0,4.78,4.39h31.49c2.47,0,4.28,2.52,4.28,5v.33a4.5,4.5,0,0,1-4.28,4.68h-17a4,4,0,0,0-4.06,4.27v0a3.87,3.87,0,0,0,4.06,4.16h24.38c3.14,0,5.22,2.58,5.22,5.71h0c0,3.14-2.08,4.79-5.22,4.79H96.25"/><path id="_Path_2" data-name="&lt;Path&gt;" class="cls-4" d="M63.65,128.34c7.3-6.66,5.3-17.73-3.21-22.74L39.18,93.07a9.77,9.77,0,0,1,.08-16.89s15-12.4,18.24-15.68,1.9-6.75-1-8.13-12.25-4.43-15.73-6.22c-3.07-1.58-4.84-4.4-1.56-5.83s6.35-2.55,8.54-4c3.07-2.07-.9-5-.9-5"/><path class="cls-4" d="M58.51,59.27S44.71,74.72,41.65,79.2,43,89,51.83,89.29s20.61,0,20.61,0"/><path class="cls-4" d="M78.13,86.28s26.94,3.45,36.7,15.3"/><line class="cls-4" x1="27.01" y1="60.69" x2="27.01" y2="79.82"/><polyline class="cls-5" points="23.32 63.9 36.71 63.9 34.26 60.69"/><line class="cls-5" x1="34.54" y1="67.39" x2="36.71" y2="63.9"/></svg>