<svg id="icons" xmlns="http://www.w3.org/2000/svg" xmlns:xlink="http://www.w3.org/1999/xlink" viewBox="0 0 130 130"><defs><style>.cls-1{fill:#fff;}.cls-2{opacity:0.9;fill:url(#linear-gradient);}.cls-3,.cls-4{fill:none;stroke:#7a589e;stroke-linecap:round;stroke-width:2px;}.cls-3{stroke-miterlimit:10;}.cls-4{stroke-linejoin:round;}.cls-5{fill:#7a589e;}</style><linearGradient id="linear-gradient" x1="65.15" y1="5" x2="65.15" y2="139.66" gradientUnits="userSpaceOnUse"><stop offset="0" stop-color="#7ec7e6"/><stop offset="1" stop-color="#844de1"/></linearGradient></defs><title>heroku-is</title><path class="cls-1" d="M126.9,66.75A61.75,61.75,0,1,1,38.32,11.12s6.21-7.17,14.27-8S65.15,5,65.15,5A61.75,61.75,0,0,1,126.9,66.75Z"/><path class="cls-2" d="M65.15,5c-.56,0,6.73,3.51,8.73,7,2.13-.4,23.26.16,17.56,18,2.33,3.28,1.63,8.69,1.63,8.69s-2.51-3.44-5.62-3.93c-3.76,3.42-12.61,3.65-18,.5C65.05,37.51,54.06,45.36,39.68,33c-1.91.37-3.89,4.72-3.89,4.72s-3.35-5.08.5-9.57C34,21.32,33.17,16.53,39.12,9.91a61.73,61.73,0,0,0-35.72,56,66.15,66.15,0,0,0,6.94,28.9c3.63-2.14,10.29-1.64,14.12-3.44,6.24-2.93-.68-7.59-2.92-11.1-1.88-3-7.89-22,2.21-31.32,6.77-6.25,14.34-5.77,21.35-1.42C55,53.62,52,69.83,51.45,72.21c-1.07,4.55-2.55,7.06-5,11-1.49,2.41-2.87,2.2-2.25,5.48s3.73,3.45,6.45,4a35.49,35.49,0,0,1,15.1,5.14c5.44-4.12,17-5.39,19.4-6.75s1.37-3.56,1.22-5.46c-2.8-2-9.25-9.24-7.65-25.41.87-8.81,6.14-13.21,12.21-15,6.94-2.09,12.73,0,17.33,5.41,5,5.95,4.54,15.66,3.38,22.69-.68,4.14-7.28,13.18-7.28,13.18s-1.66,4,3.41,5.61c3.34,0,10.52,2.68,12.15,3.2a65.5,65.5,0,0,0,7-29.4C126.9,31.8,99.25,5,65.15,5Z"/><path class="cls-3" d="M66,5a61.7,61.7,0,1,1-27.67,6.11"/><path class="cls-4" d="M119.87,94.59a37.9,37.9,0,0,0-11.09-2.48c-3.48-.51-4.78-2.27-4.66-4.79.14-2.9,8.67-7.07,8.67-23.61,0-11.13-7.41-19.43-17.27-19.43s-17.27,8.3-17.27,19.43c0,18.7,8.52,20.71,8.66,23.61.12,2.52-1.17,4.28-4.66,4.79,0,0-9.6,1.19-16.51,6-6.9-5.19-17.21-6-17.21-6-3.49-.51-4.78-2.27-4.66-4.79.14-2.9,8.66-7.07,8.66-23.61,0-11.13-7.41-19.43-17.27-19.43S18,52.58,18,63.71c0,18.7,8.52,20.71,8.66,23.61.12,2.52-1.17,4.28-4.66,4.79a45,45,0,0,0-11.65,2.7"/><path class="cls-4" d="M74.33,11.86C70.58,6.6,63.8,3.09,56.05,3.09c-11.81,0-21.38,8.14-21.38,18.19a15.77,15.77,0,0,0,1.65,7c-1.52,2-3.42,4.8-.53,9.44a10.45,10.45,0,0,1,3.82-4.82,23,23,0,0,0,16.44,6.57,23.72,23.72,0,0,0,13.24-3.92"/><path class="cls-4" d="M91.16,30.36a11.18,11.18,0,0,0,1.46-5.49c0-7-6.63-12.72-14.81-12.72S63,17.84,63,24.87,69.63,37.6,77.81,37.6a16.29,16.29,0,0,0,9.36-2.86c2.34.89,5.34,1.67,5.37,4.73A10.1,10.1,0,0,0,91.16,30.36Z"/><circle class="cls-5" cx="73.37" cy="25.02" r="1.36"/><circle class="cls-5" cx="77.89" cy="25.02" r="1.36"/><circle class="cls-5" cx="82.71" cy="25.02" r="1.36"/><circle class="cls-5" cx="52.69" cy="22.3" r="1.36"/><circle class="cls-5" cx="57.22" cy="22.3" r="1.36"/></svg>